<?xml version="1.0" standalone="no"?>
<!DOCTYPE svg PUBLIC "-//W3C//DTD SVG 20010904//EN"
 "http://www.w3.org/TR/2001/REC-SVG-20010904/DTD/svg10.dtd">
<svg version="1.0" xmlns="http://www.w3.org/2000/svg"
 width="260.000000pt" height="260.000000pt" viewBox="0 0 260.000000 260.000000"
 preserveAspectRatio="xMidYMid meet">
<metadata>
Created by potrace 1.11, written by Peter Selinger 2001-2013
</metadata>
<g transform="translate(0.000000,260.000000) scale(0.100000,-0.100000)"
fill="#000000" stroke="none">
<path d="M1748 2438 c-13 -10 -27 -18 -32 -18 -4 0 -17 -11 -28 -25 -11 -14
-24 -25 -29 -25 -15 0 -69 -52 -69 -67 0 -7 -4 -13 -9 -13 -6 0 -9 -10 -8 -22
3 -30 48 -118 60 -118 5 0 7 -7 3 -15 -3 -8 -2 -15 3 -15 10 0 101 -176 101
-196 0 -8 5 -14 11 -14 5 0 8 -4 4 -9 -3 -5 -1 -12 5 -16 5 -3 10 -12 10 -20
0 -8 5 -26 12 -42 6 -15 10 -34 9 -41 -1 -8 3 -20 10 -28 18 -22 17 -364 -1
-364 -4 0 -7 -8 -7 -17 1 -23 -14 -95 -22 -108 -3 -5 -7 -16 -8 -22 -9 -39
-17 -60 -56 -143 -17 -36 -35 -68 -41 -72 -6 -4 -7 -8 -3 -8 4 0 -5 -17 -20
-37 -15 -20 -26 -38 -23 -39 3 -2 -15 -26 -40 -54 -25 -28 -44 -53 -43 -55 7
-13 -218 -211 -254 -226 -13 -5 -23 -13 -23 -19 0 -5 -3 -9 -7 -8 -5 1 -27
-10 -50 -26 -41 -27 -80 -50 -133 -78 -14 -7 -28 -17 -32 -23 -4 -5 -8 -6 -8
-1 0 5 -6 4 -12 -1 -7 -6 -25 -13 -40 -17 -16 -3 -28 -11 -28 -16 0 -5 -7 -7
-15 -4 -8 4 -15 1 -15 -4 0 -6 -10 -14 -22 -18 -21 -6 -66 -44 -53 -44 3 0 -1
-10 -9 -22 -9 -12 -16 -39 -16 -59 0 -33 4 -39 40 -57 24 -12 55 -18 75 -16
19 1 35 -1 35 -6 0 -10 209 -10 215 0 2 4 24 6 47 5 24 -2 48 1 53 5 6 4 31
11 57 14 26 4 50 11 53 17 4 5 10 7 14 5 23 -15 308 121 395 188 20 15 38 27
41 26 11 0 265 246 265 257 0 4 9 16 20 28 35 35 90 110 90 123 0 6 3 12 8 12
7 0 42 56 41 67 0 3 3 9 8 12 10 7 84 159 101 206 5 17 14 39 18 50 4 11 6 24
5 29 -1 5 2 12 7 15 12 8 33 113 35 174 0 26 4 47 8 47 3 0 6 23 6 50 0 28 -3
50 -7 50 -4 0 -6 19 -5 43 1 23 -2 49 -6 57 -8 16 -32 103 -30 108 1 1 -15 25
-34 52 -19 27 -35 53 -35 58 0 11 -66 72 -79 72 -6 0 -11 3 -11 8 0 9 -62 46
-72 44 -5 -1 -8 2 -8 7 0 5 -13 12 -30 16 -16 4 -30 11 -30 15 0 5 -6 7 -13 4
-7 -2 -27 2 -43 11 -16 8 -44 15 -61 15 -18 0 -33 5 -33 11 0 5 -4 7 -10 4 -5
-3 -10 -3 -11 2 0 4 -3 17 -5 28 -2 11 -6 31 -8 45 -2 14 -6 32 -9 40 -3 8
-11 38 -17 65 -6 28 -12 55 -14 60 -1 6 -8 29 -15 53 -19 67 -73 89 -123 50z"/>
<path d="M1624 1731 c6 -9 -58 -71 -73 -71 -5 0 -18 -11 -29 -25 -11 -14 -23
-25 -27 -25 -5 0 -22 -10 -39 -23 -17 -13 -58 -37 -91 -53 -33 -16 -63 -33
-66 -37 -3 -5 -9 -8 -13 -8 -7 1 -18 -3 -61 -20 -16 -7 -36 -11 -42 -10 -7 1
-13 -2 -13 -7 0 -5 -6 -9 -12 -10 -7 0 -33 -6 -58 -12 -25 -7 -52 -13 -60 -15
-8 -2 -15 -4 -15 -6 0 -1 -9 -3 -20 -5 -11 -2 -40 -8 -65 -15 -25 -6 -52 -11
-60 -11 -8 0 -22 -2 -30 -5 -8 -3 -31 -7 -50 -9 -19 -2 -53 -6 -75 -9 -146
-19 -475 -35 -475 -22 0 4 -8 7 -18 7 -21 0 -85 -44 -76 -53 3 -3 2 -12 -2
-19 -29 -45 5 -165 53 -187 13 -6 23 -14 23 -19 0 -5 18 -15 40 -22 22 -7 40
-17 40 -22 0 -5 4 -7 9 -3 5 3 12 1 16 -5 3 -5 15 -10 26 -10 10 0 19 -4 19
-8 0 -4 8 -8 18 -9 21 -2 40 -7 67 -19 26 -11 135 -11 160 0 11 5 25 10 30 11
6 0 17 4 25 7 8 3 51 18 95 33 44 15 108 40 143 56 34 16 65 28 69 28 3 0 9 3
12 8 8 11 63 37 74 35 4 -1 7 3 7 9 0 5 4 8 8 5 5 -3 18 3 28 13 11 9 25 16
32 13 6 -2 12 1 12 7 0 7 11 16 25 21 14 5 25 15 25 21 0 7 3 9 7 6 3 -4 25 9
49 28 23 19 46 35 49 35 4 0 23 17 41 37 19 20 34 33 34 29 0 -4 18 10 40 32
22 21 40 42 40 46 0 5 12 21 28 36 40 41 72 82 72 92 0 4 9 17 20 28 11 11 20
27 20 35 0 8 5 15 12 15 6 0 8 3 5 6 -3 4 0 16 8 28 20 27 19 56 -1 56 -8 0
-13 -4 -10 -9z"/>
<path d="M1686 1573 c-28 -63 -47 -94 -62 -100 -8 -3 -14 -10 -14 -16 0 -6
-40 -51 -90 -100 -49 -49 -90 -86 -90 -82 0 5 -11 -4 -25 -19 -14 -15 -25 -24
-25 -21 0 4 -20 -10 -44 -29 -23 -20 -48 -36 -55 -36 -6 0 -11 -5 -11 -11 0
-5 -4 -8 -9 -4 -5 3 -12 1 -15 -4 -17 -27 -331 -178 -358 -173 -5 1 -8 -2 -8
-6 0 -9 -78 -37 -92 -34 -5 1 -8 -3 -8 -8 0 -5 -3 -9 -7 -8 -12 2 -95 -21
-116 -33 -10 -5 -22 -7 -27 -4 -5 3 -11 1 -15 -4 -3 -6 -26 -13 -50 -17 -25
-3 -45 -9 -45 -13 0 -4 -10 -8 -22 -8 -48 -3 -133 -25 -140 -36 -13 -20 -8
-101 7 -121 8 -11 15 -28 15 -38 0 -18 82 -77 107 -78 6 0 24 -5 40 -12 38
-15 73 -18 251 -22 84 -2 155 1 158 6 3 4 10 6 15 3 5 -4 9 -1 9 4 0 6 4 11 9
11 11 0 108 58 132 80 23 20 38 31 76 58 98 69 347 322 316 322 -4 0 3 7 15
16 12 8 22 22 22 30 0 8 4 14 9 14 5 0 18 18 29 39 34 65 47 86 55 92 5 3 8 8
7 10 -1 2 4 18 10 34 18 51 20 55 17 59 -1 1 3 9 10 17 6 8 14 31 18 52 4 20
11 37 15 37 4 0 6 12 4 27 -1 15 0 32 4 38 9 13 10 125 2 125 -4 0 -14 -17
-24 -37z"/>
</g>
</svg>
